<svg xmlns="http://www.w3.org/2000/svg" xmlns:xlink="http://www.w3.org/1999/xlink" width="32" zoomAndPan="magnify" viewBox="22 134 112 112" height="32" preserveAspectRatio="xMidYMid meet" version="1.0"><defs><g/><clipPath id="d5de1d9ce4"><path d="M 37.5 149.964844 L 118.5 149.964844 L 118.5 229.464844 L 37.5 229.464844 Z M 37.5 149.964844 " clip-rule="nonzero"/></clipPath><clipPath id="eaa0fb16f0"><rect x="0" width="199" y="0" height="15"/></clipPath><clipPath id="c66138f001"><rect x="0" width="66" y="0" height="36"/></clipPath></defs><rect x="-37.5" width="450" fill="#ffffff" y="-37.499999" height="449.999989" fill-opacity="1"/><rect x="-37.5" width="450" fill="#020122" y="-37.499999" height="449.999989" fill-opacity="1"/><path fill="#ffffff" d="M 93.867188 195.960938 C 92.652344 195.960938 91.492188 196.328125 90.507812 197 C 89.484375 196.246094 88.265625 195.820312 86.976562 195.820312 C 85.375 195.820312 83.875 196.445312 82.746094 197.574219 C 82.21875 198.101562 82.21875 198.949219 82.746094 199.476562 C 83.269531 200 84.121094 200 84.644531 199.476562 C 85.890625 198.230469 88.058594 198.230469 89.304688 199.476562 C 89.925781 200.097656 90.269531 200.925781 90.269531 201.804688 C 90.269531 202.683594 89.925781 203.511719 89.304688 204.132812 C 88.78125 204.660156 88.78125 205.511719 89.304688 206.035156 C 89.566406 206.296875 89.910156 206.429688 90.253906 206.429688 C 90.597656 206.429688 90.941406 206.296875 91.207031 206.035156 C 92.335938 204.90625 92.957031 203.402344 92.957031 201.804688 C 92.957031 200.839844 92.707031 199.921875 92.277344 199.089844 C 93.523438 198.421875 95.171875 198.589844 96.199219 199.613281 C 96.460938 199.878906 96.804688 200.007812 97.148438 200.007812 C 97.492188 200.007812 97.835938 199.878906 98.097656 199.613281 C 98.625 199.089844 98.625 198.238281 98.097656 197.714844 C 96.96875 196.582031 95.464844 195.960938 93.867188 195.960938 Z M 93.867188 195.960938 " fill-opacity="1" fill-rule="nonzero"/><path fill="#ffffff" d="M 104.609375 192.085938 C 104.277344 191.742188 103.921875 191.421875 103.546875 191.128906 C 105.214844 189.933594 106.292969 187.984375 106.292969 185.835938 C 106.292969 182.898438 104.332031 180.402344 101.648438 179.589844 C 102.265625 177.476562 102.160156 175.199219 101.316406 173.023438 C 100.328125 170.484375 98.210938 168.433594 95.652344 167.539062 C 93.558594 166.800781 91.414062 166.734375 89.4375 167.296875 C 89.527344 166.246094 89.359375 165.160156 88.925781 164.105469 C 88.257812 162.484375 86.929688 161.21875 85.273438 160.628906 C 83.164062 159.878906 80.941406 160.167969 79.175781 161.410156 C 78.625 161.800781 78.15625 162.273438 77.757812 162.800781 C 77.355469 162.273438 76.886719 161.800781 76.335938 161.410156 C 74.570312 160.167969 72.347656 159.878906 70.238281 160.628906 C 68.585938 161.21875 67.253906 162.484375 66.585938 164.105469 C 66.152344 165.160156 65.984375 166.246094 66.074219 167.296875 C 64.101562 166.730469 61.957031 166.800781 59.859375 167.539062 C 57.300781 168.433594 55.183594 170.484375 54.195312 173.023438 C 53.351562 175.199219 53.246094 177.476562 53.863281 179.589844 C 51.183594 180.402344 49.21875 182.898438 49.21875 185.835938 C 49.21875 187.984375 50.296875 189.933594 51.964844 191.128906 C 51.589844 191.421875 51.234375 191.742188 50.902344 192.085938 C 49.132812 193.9375 48.15625 196.363281 48.15625 198.921875 C 48.15625 203.214844 50.894531 206.9375 54.851562 208.285156 C 54.476562 209.929688 54.65625 211.636719 55.390625 213.296875 C 56.152344 215.03125 57.609375 216.449219 59.382812 217.179688 C 61.480469 218.042969 63.65625 218.03125 65.621094 217.164062 C 67.121094 218.605469 69.066406 219.371094 71.105469 219.367188 C 72.132812 219.367188 73.1875 219.175781 74.21875 218.773438 C 75.679688 218.203125 76.902344 217.175781 77.757812 215.875 C 78.613281 217.175781 79.832031 218.203125 81.292969 218.773438 C 82.324219 219.175781 83.378906 219.367188 84.40625 219.367188 C 86.445312 219.367188 88.390625 218.605469 89.890625 217.164062 C 91.859375 218.03125 94.035156 218.042969 96.128906 217.179688 C 97.902344 216.449219 99.359375 215.03125 100.121094 213.296875 C 100.855469 211.636719 101.035156 209.929688 100.660156 208.285156 C 104.617188 206.9375 107.355469 203.214844 107.355469 198.921875 C 107.355469 196.363281 106.378906 193.9375 104.609375 192.085938 Z M 73.242188 216.265625 C 70.425781 217.363281 68.15625 216.152344 66.964844 214.65625 C 66.703125 214.324219 66.3125 214.148438 65.914062 214.148438 C 65.671875 214.148438 65.425781 214.210938 65.207031 214.347656 C 64.175781 214.984375 62.511719 215.558594 60.410156 214.691406 C 59.269531 214.222656 58.335938 213.320312 57.847656 212.214844 C 57.039062 210.375 57.378906 208.847656 57.804688 207.886719 C 57.972656 207.507812 57.957031 207.074219 57.761719 206.707031 C 57.566406 206.34375 57.214844 206.085938 56.804688 206.015625 C 53.351562 205.410156 50.847656 202.429688 50.847656 198.921875 C 50.847656 197.058594 51.554688 195.292969 52.84375 193.949219 C 53.578125 193.183594 54.488281 192.578125 55.472656 192.199219 C 56.042969 191.980469 56.394531 191.402344 56.324219 190.796875 C 56.257812 190.1875 55.789062 189.703125 55.1875 189.613281 C 53.289062 189.332031 51.910156 187.746094 51.910156 185.835938 C 51.910156 183.730469 53.625 182.011719 55.730469 182.003906 C 56.195312 182 56.628906 181.757812 56.871094 181.359375 C 57.113281 180.964844 57.132812 180.46875 56.925781 180.054688 C 56.261719 178.734375 55.6875 176.613281 56.703125 174 C 57.410156 172.183594 58.921875 170.714844 60.75 170.074219 C 63.257812 169.191406 65.839844 169.597656 67.835938 171.175781 C 68.378906 171.605469 69.160156 171.550781 69.640625 171.050781 C 70.121094 170.550781 70.140625 169.765625 69.6875 169.242188 C 68.691406 168.09375 68.46875 166.59375 69.070312 165.132812 C 69.441406 164.226562 70.214844 163.492188 71.136719 163.164062 C 72.414062 162.710938 73.742188 162.871094 74.785156 163.609375 C 75.804688 164.328125 76.410156 165.5 76.410156 166.746094 L 76.410156 203.03125 C 75.226562 202.101562 73.753906 201.519531 72.132812 201.519531 C 68.289062 201.519531 65.164062 204.648438 65.164062 208.488281 C 65.164062 209.230469 65.765625 209.832031 66.507812 209.832031 C 67.25 209.832031 67.851562 209.230469 67.851562 208.488281 C 67.851562 206.128906 69.773438 204.210938 72.132812 204.210938 C 74.492188 204.210938 76.410156 206.128906 76.410156 208.488281 L 76.410156 211.371094 C 76.410156 213.5625 75.136719 215.527344 73.242188 216.265625 Z M 98.707031 206.015625 C 98.296875 206.085938 97.945312 206.34375 97.75 206.707031 C 97.558594 207.074219 97.542969 207.507812 97.710938 207.886719 C 98.132812 208.847656 98.472656 210.375 97.664062 212.214844 C 97.175781 213.320312 96.242188 214.222656 95.101562 214.691406 C 93.003906 215.558594 91.335938 214.984375 90.304688 214.347656 C 89.726562 213.992188 88.96875 214.121094 88.546875 214.65625 C 87.359375 216.152344 85.085938 217.363281 82.269531 216.265625 C 80.375 215.527344 79.101562 213.5625 79.101562 211.371094 L 79.101562 184.503906 C 80.285156 185.433594 81.757812 186.011719 83.378906 186.011719 C 87.222656 186.011719 90.351562 182.886719 90.351562 179.042969 C 90.351562 178.300781 89.746094 177.699219 89.003906 177.699219 C 88.261719 177.699219 87.660156 178.300781 87.660156 179.042969 C 87.660156 181.402344 85.742188 183.324219 83.378906 183.324219 C 81.019531 183.324219 79.101562 181.402344 79.101562 179.042969 L 79.101562 166.746094 C 79.101562 165.5 79.710938 164.328125 80.726562 163.609375 C 81.382812 163.148438 82.144531 162.910156 82.941406 162.910156 C 83.414062 162.910156 83.898438 162.996094 84.375 163.164062 C 85.296875 163.492188 86.070312 164.226562 86.441406 165.132812 C 87.042969 166.59375 86.820312 168.09375 85.824219 169.242188 C 85.371094 169.765625 85.390625 170.550781 85.871094 171.050781 C 86.351562 171.550781 87.132812 171.605469 87.679688 171.175781 C 89.671875 169.59375 92.253906 169.195312 94.765625 170.074219 C 96.589844 170.714844 98.101562 172.183594 98.808594 174 C 99.824219 176.613281 99.25 178.734375 98.585938 180.054688 C 98.378906 180.46875 98.398438 180.964844 98.640625 181.359375 C 98.886719 181.757812 99.316406 182 99.78125 182.003906 C 101.890625 182.011719 103.601562 183.730469 103.601562 185.835938 C 103.601562 187.746094 102.226562 189.332031 100.324219 189.613281 C 99.722656 189.703125 99.253906 190.1875 99.1875 190.796875 C 99.121094 191.402344 99.46875 191.980469 100.039062 192.199219 C 101.023438 192.578125 101.933594 193.183594 102.667969 193.949219 C 103.957031 195.292969 104.664062 197.058594 104.664062 198.921875 C 104.664062 202.429688 102.160156 205.410156 98.707031 206.015625 Z M 98.707031 206.015625 " fill-opacity="1" fill-rule="nonzero"/><path fill="#ffffff" d="M 67.75 189.863281 C 67.75 190.605469 68.351562 191.207031 69.09375 191.207031 C 69.835938 191.207031 70.4375 190.605469 70.4375 189.863281 C 70.4375 187.757812 69.339844 185.910156 67.6875 184.84375 C 67.695312 184.835938 67.703125 184.832031 67.710938 184.824219 C 70.042969 182.492188 70.042969 178.699219 67.710938 176.363281 C 67.183594 175.839844 66.335938 175.839844 65.808594 176.363281 C 65.285156 176.890625 65.285156 177.738281 65.808594 178.265625 C 67.09375 179.550781 67.09375 181.640625 65.808594 182.925781 C 64.523438 184.210938 62.433594 184.210938 61.148438 182.925781 C 60.625 182.398438 59.773438 182.398438 59.25 182.925781 C 58.722656 183.449219 58.722656 184.300781 59.25 184.824219 C 60.414062 185.992188 61.945312 186.574219 63.480469 186.574219 C 63.710938 186.574219 63.9375 186.535156 64.167969 186.507812 C 64.261719 186.53125 64.351562 186.566406 64.453125 186.566406 C 66.269531 186.566406 67.75 188.046875 67.75 189.863281 Z M 67.75 189.863281 " fill-opacity="1" fill-rule="nonzero"/><g clip-path="url(#d5de1d9ce4)"><path fill="#ffffff" d="M 130.1875 191.140625 C 130.929688 191.140625 131.535156 190.539062 131.535156 189.796875 C 131.535156 189.054688 130.929688 188.453125 130.1875 188.453125 L 118.089844 188.453125 L 118.089844 169.628906 L 125.09375 169.628906 C 125.613281 170.816406 126.792969 171.648438 128.171875 171.648438 C 130.027344 171.648438 131.535156 170.140625 131.535156 168.285156 C 131.535156 166.429688 130.027344 164.925781 128.171875 164.925781 C 126.792969 164.925781 125.613281 165.753906 125.09375 166.941406 L 118.089844 166.941406 L 118.089844 156.1875 C 118.089844 152.480469 115.074219 149.464844 111.367188 149.464844 L 100.617188 149.464844 L 100.617188 137.363281 C 100.617188 136.621094 100.015625 136.019531 99.273438 136.019531 C 98.53125 136.019531 97.929688 136.621094 97.929688 137.363281 L 97.929688 149.464844 L 79.105469 149.464844 L 79.105469 137.363281 C 79.105469 136.621094 78.503906 136.019531 77.761719 136.019531 C 77.019531 136.019531 76.417969 136.621094 76.417969 137.363281 L 76.417969 149.464844 L 57.59375 149.464844 L 57.59375 142.457031 C 58.78125 141.9375 59.613281 140.757812 59.613281 139.378906 C 59.613281 137.523438 58.105469 136.019531 56.25 136.019531 C 54.394531 136.019531 52.890625 137.523438 52.890625 139.378906 C 52.890625 140.757812 53.71875 141.9375 54.90625 142.457031 L 54.90625 149.464844 L 44.144531 149.464844 C 40.4375 149.464844 37.421875 152.480469 37.421875 156.1875 L 37.421875 166.941406 L 25.324219 166.941406 C 24.582031 166.941406 23.980469 167.542969 23.980469 168.285156 C 23.980469 169.027344 24.582031 169.628906 25.324219 169.628906 L 37.421875 169.628906 L 37.421875 188.453125 L 25.324219 188.453125 C 24.582031 188.453125 23.980469 189.054688 23.980469 189.796875 C 23.980469 190.539062 24.582031 191.140625 25.324219 191.140625 L 37.421875 191.140625 L 37.421875 209.964844 L 30.417969 209.964844 C 29.898438 208.777344 28.71875 207.945312 27.339844 207.945312 C 25.484375 207.945312 23.980469 209.453125 23.980469 211.308594 C 23.980469 213.164062 25.484375 214.667969 27.339844 214.667969 C 28.71875 214.667969 29.898438 213.839844 30.417969 212.652344 L 37.421875 212.652344 L 37.421875 223.40625 C 37.421875 227.113281 40.4375 230.128906 44.144531 230.128906 L 54.902344 230.128906 L 54.902344 237.148438 C 53.71875 237.671875 52.890625 238.847656 52.890625 240.222656 C 52.890625 242.082031 54.394531 243.585938 56.25 243.585938 C 58.105469 243.585938 59.613281 242.082031 59.613281 240.222656 C 59.613281 238.84375 58.777344 237.660156 57.589844 237.144531 L 57.589844 230.128906 L 76.410156 230.128906 L 76.410156 242.230469 C 76.410156 242.972656 77.011719 243.574219 77.757812 243.574219 C 78.5 243.574219 79.101562 242.972656 79.101562 242.230469 L 79.101562 230.128906 L 97.921875 230.128906 L 97.921875 242.230469 C 97.921875 242.972656 98.523438 243.574219 99.265625 243.574219 C 100.007812 243.574219 100.613281 242.972656 100.613281 242.230469 L 100.613281 230.128906 L 111.367188 230.128906 C 115.074219 230.128906 118.089844 227.113281 118.089844 223.40625 L 118.089844 212.652344 L 130.1875 212.652344 C 130.929688 212.652344 131.535156 212.050781 131.535156 211.308594 C 131.535156 210.566406 130.929688 209.964844 130.1875 209.964844 L 118.089844 209.964844 L 118.089844 191.140625 Z M 115.398438 223.40625 C 115.398438 225.632812 113.589844 227.441406 111.367188 227.441406 L 44.144531 227.441406 C 41.921875 227.441406 40.113281 225.632812 40.113281 223.40625 L 40.113281 156.1875 C 40.113281 153.960938 41.921875 152.152344 44.144531 152.152344 L 111.367188 152.152344 C 113.589844 152.152344 115.398438 153.960938 115.398438 156.1875 Z M 115.398438 223.40625 " fill-opacity="1" fill-rule="nonzero"/></g><g fill="#ffffff" fill-opacity="1"><g transform="translate(167.048714, 217.169518)"><g><path d="M 3.125 0 L 3.125 -45.609375 L 37.703125 -45.609375 L 37.703125 -36.234375 L 14.609375 -36.234375 L 14.609375 -28.140625 L 34.515625 -28.140625 L 34.515625 -18.75 L 14.609375 -18.75 L 14.609375 -9.375 L 38.09375 -9.375 L 38.09375 0 Z M 3.125 0 "/></g></g></g><g fill="#ffffff" fill-opacity="1"><g transform="translate(207.488516, 217.169518)"><g><path d="M 0.1875 0 L 15.3125 -23.28125 L 1.46875 -45.609375 L 13.59375 -45.609375 L 21.953125 -31.703125 L 22.078125 -31.703125 L 30.5 -45.609375 L 42.609375 -45.609375 L 28.765625 -23.40625 L 43.890625 0 L 31.140625 0 L 22.078125 -14.796875 L 21.953125 -14.796875 L 12.953125 0 Z M 0.1875 0 "/></g></g></g><g fill="#ffffff" fill-opacity="1"><g transform="translate(251.946772, 217.169518)"><g><path d="M 21.875 1.015625 C 14.988281 1.015625 10.085938 -0.476562 7.171875 -3.46875 C 4.265625 -6.46875 2.8125 -10.796875 2.8125 -16.453125 L 2.8125 -45.609375 L 14.296875 -45.609375 L 14.296875 -16.453125 C 14.296875 -13.484375 14.929688 -11.390625 16.203125 -10.171875 C 17.484375 -8.960938 19.375 -8.359375 21.875 -8.359375 C 24.382812 -8.359375 26.273438 -8.960938 27.546875 -10.171875 C 28.828125 -11.390625 29.46875 -13.484375 29.46875 -16.453125 L 29.46875 -45.609375 L 40.953125 -45.609375 L 40.953125 -16.453125 C 40.953125 -10.796875 39.492188 -6.46875 36.578125 -3.46875 C 33.671875 -0.476562 28.769531 1.015625 21.875 1.015625 Z M 21.875 1.015625 "/></g></g></g><g fill="#ffffff" fill-opacity="1"><g transform="translate(296.086105, 217.169518)"><g><path d="M 21.75 1.015625 C 17.800781 1.015625 14.257812 0.390625 11.125 -0.859375 C 8 -2.117188 5.519531 -3.945312 3.6875 -6.34375 C 1.863281 -8.75 0.953125 -11.632812 0.953125 -15 L 12.4375 -15 C 12.4375 -13.375 12.863281 -12.070312 13.71875 -11.09375 C 14.570312 -10.125 15.695312 -9.425781 17.09375 -9 C 18.5 -8.570312 20.050781 -8.359375 21.75 -8.359375 C 23.875 -8.359375 25.5 -8.726562 26.625 -9.46875 C 27.757812 -10.21875 28.328125 -11.164062 28.328125 -12.3125 C 28.328125 -13.539062 27.828125 -14.492188 26.828125 -15.171875 C 25.828125 -15.859375 24.472656 -16.457031 22.765625 -16.96875 C 21.066406 -17.476562 19.132812 -18.050781 16.96875 -18.6875 C 14.375 -19.457031 11.945312 -20.394531 9.6875 -21.5 C 7.4375 -22.601562 5.628906 -24.054688 4.265625 -25.859375 C 2.910156 -27.671875 2.234375 -29.984375 2.234375 -32.796875 C 2.234375 -36.109375 3.019531 -38.785156 4.59375 -40.828125 C 6.164062 -42.867188 8.28125 -44.347656 10.9375 -45.265625 C 13.59375 -46.179688 16.5625 -46.640625 19.84375 -46.640625 C 23.414062 -46.640625 26.632812 -46.039062 29.5 -44.84375 C 32.375 -43.65625 34.679688 -41.953125 36.421875 -39.734375 C 38.171875 -37.523438 39.085938 -34.867188 39.171875 -31.765625 L 27.6875 -31.765625 C 27.4375 -33.515625 26.617188 -34.863281 25.234375 -35.8125 C 23.847656 -36.769531 22.050781 -37.25 19.84375 -37.25 C 18.132812 -37.25 16.6875 -36.960938 15.5 -36.390625 C 14.3125 -35.816406 13.71875 -34.894531 13.71875 -33.625 C 13.71875 -32.21875 14.4375 -31.179688 15.875 -30.515625 C 17.320312 -29.859375 19.472656 -29.128906 22.328125 -28.328125 C 24.492188 -27.734375 26.609375 -27.070312 28.671875 -26.34375 C 30.734375 -25.625 32.601562 -24.722656 34.28125 -23.640625 C 35.96875 -22.554688 37.3125 -21.179688 38.3125 -19.515625 C 39.3125 -17.859375 39.8125 -15.816406 39.8125 -13.390625 C 39.8125 -9.015625 38.222656 -5.519531 35.046875 -2.90625 C 31.878906 -0.289062 27.445312 1.015625 21.75 1.015625 Z M 21.75 1.015625 "/></g></g></g></svg>